<svg id="svg_canvas" data-noselect="" viewBox="0 0 200 200" width="200" height="200" preserveAspectRatio="none"
     version="1.1" xmlns="http://www.w3.org/2000/svg" style="background: rgb(255, 255, 255);">
    <g id="shape_brdJGdhLEi"
       transform="translate(35.40410631211583,19) rotate(0,55.046058848389315,78.37288974799796) scale(-1,1)" filter=""
       style="cursor: move; opacity: 1;">
        <g>
            <rect fill="rgba(0,0,0,0)" width="130.09211769677864" height="176.74577949599592" x="-10" y="-10"></rect>
            <svg version="1.1" id="图层_1" xmlns="http://www.w3.org/2000/svg" xmlns:xlink="http://www.w3.org/1999/xlink"
                 x="-110.09211769677863" y="0px" width="110.09211769677863" height="156.74577949599592"
                 viewBox="40.17637252807617 19.12739372253418 113.62442016601562 161.77496337890625"
                 style="enable-background:new 0 0 200 200;" xml:space="preserve" preserveAspectRatio="none"
                 data-parent="shape_brdJGdhLEi">
<style type="text/css">
	.st0{fill:#0464AC;}
</style>
                <path class="" d="M147.2,19.3L75.1,37.9c-2.2,0.6-4,2.3-4.6,4.6l-8.2,30.9h8.1l6.5-24.6c0.5-1.8,1.7-3.3,3.3-3.8L131,33.9
	c2.8-0.9,5.4,2.1,4.7,5.3L104.4,163c-0.7,2.9-3.4,4.6-6,3.7l-45.1-11c-2.4-0.9-3.7-3.7-3.1-6.4l6.2-23.4h-8.2l-7.8,29.4
	c-0.9,3.3,1,6.7,4.2,7.8l60.5,17.5c3.5,1.1,7.3-0.9,8.2-4.4l40.3-150.4C154.7,21.8,151.1,18.3,147.2,19.3z"
                      fill="#09051a"></path>
</svg>
        </g> <!---->
    </g>
    <g id="shape_E29vr345r4"
       transform="translate(57.89473684210527,79.42551364223695) rotate(0,59.7236563007967,30.43359590783179) scale(1,1)"
       filter="" style="cursor: move; opacity: 1;">
        <g>
            <svg xmlns="http://www.w3.org/2000/svg" version="1.1" xmlns:xlink="http://www.w3.org/1999/xlink"
                 overflow="hidden" style="top:0; left: 0" width="119.4473126015934" height="60.86719181566358"
                 viewBox="0 0 98.754787109375 50.32282802167596" preserveAspectRatio="none"
                 data-parent="shape_E29vr345r4">
                <rect fill="rgba(0,0,0,0)" width="98.754787109375" height="50.32282802167596"></rect>
                <rect opacity="0"></rect>
                <g transform="translate(10.811479166358453,0)" data-width="87.94330794301655">
                    <path fill="#09051a"
                          d="M12.92-4.44L1.88-4.44L1.88-31.30L12.92-31.30Q17.89-31.30 21.41-27.37L21.41-27.37Q24.91-23.44 24.91-17.87L24.91-17.87Q24.91-12.30 21.41-8.37L21.41-8.37Q17.89-4.44 12.92-4.44L12.92-4.44ZM12.92-26.32L6.87-26.32L6.87-9.42L12.92-9.42Q15.82-9.42 17.87-11.89L17.87-11.89Q19.92-14.37 19.92-17.87L19.92-17.87Q19.92-21.37 17.87-23.84L17.87-23.84Q15.82-26.32 12.92-26.32L12.92-26.32Z"
                          transform="translate(5 32.281859022503156)" data-glyph-w="26.036184666168044"></path>
                    <path fill="#09051a"
                          d="M15.05-26.79L15.05-26.79Q18.74-26.79 21.35-24.17L21.35-24.17Q23.97-21.56 23.97-17.87L23.97-17.87Q23.97-14.17 21.35-11.55L21.35-11.55Q18.74-8.94 15.05-8.94L15.05-8.94Q11.34-8.94 8.73-11.55L8.73-11.55Q6.11-14.17 6.11-17.87L6.11-17.87Q6.11-21.56 8.73-24.17L8.73-24.17Q11.34-26.79 15.05-26.79ZM15.05-31.79Q9.27-31.79 5.21-27.71L5.21-27.71Q1.13-23.63 1.13-17.87L1.13-17.87Q1.13-12.10 5.21-8.03L5.21-8.03Q9.27-3.95 15.05-3.95L15.05-3.95Q20.81-3.95 24.89-8.03L24.89-8.03Q28.95-12.10 28.95-17.87L28.95-17.87Q28.95-23.63 24.89-27.71L24.89-27.71Q20.81-31.79 15.05-31.79L15.05-31.79Z"
                          transform="translate(31.036184666168044 32.281859022503156)"
                          data-glyph-w="30.080823180059756"></path>
                    <path fill="#09051a"
                          d="M15.05-31.79Q9.27-31.79 5.21-27.71L5.21-27.71Q1.13-23.63 1.13-17.87L1.13-17.87Q1.13-12.10 5.21-8.03L5.21-8.03Q9.27-3.95 15.05-3.95L15.05-3.95Q21.52-3.95 25.70-8.92L25.70-8.92L21.88-12.13Q19.21-8.94 15.05-8.94L15.05-8.94Q11.34-8.94 8.73-11.55L8.73-11.55Q6.11-14.17 6.11-17.87L6.11-17.87Q6.11-21.56 8.73-24.17L8.73-24.17Q11.34-26.79 15.05-26.79L15.05-26.79Q19.21-26.79 21.88-23.61L21.88-23.61L25.70-26.81Q21.52-31.79 15.05-31.79L15.05-31.79Z"
                          transform="translate(61.1170078462278 32.281859022503156)"
                          data-glyph-w="26.826300096788753"></path>
                </g>
            </svg>
        </g> <!---->
    </g>
    <g id="rectBox">
        <rect id="rect_shape_brdJGdhLEi" width="110.09211769677863" height="156.74577949599592"
              transform="translate(35.40410631211583,19) rotate(0,55.046058848389315,78.37288974799796) scale(1,1)"
              fill="none" stroke="rgba(0,0,0,0)" class="box_trans"></rect>
        <rect id="rect_shape_E29vr345r4" width="119.4473126015934" height="60.86719181566358"
              transform="translate(57.89473684210527,79.42551364223695) rotate(0,59.7236563007967,30.43359590783179) scale(1,1)"
              fill="none" stroke="rgba(0,0,0,0)" class="box_trans"></rect>
    </g> <!---->
</svg>
